<?xml version="1.0" encoding="UTF-8" standalone="no"?> <!-- Created with Vectornator Pro for iOS (http://vectornator.io/) --><!DOCTYPE svg PUBLIC "-//W3C//DTD SVG 1.1//EN" "http://www.w3.org/Graphics/SVG/1.1/DTD/svg11.dtd">
<svg style="fill-rule:evenodd;clip-rule:evenodd;stroke-linecap:round;stroke-linejoin:round;" xmlns:vectornator="http://vectornator.io" xmlns:xlink="http://www.w3.org/1999/xlink" xmlns="http://www.w3.org/2000/svg" xml:space="preserve" version="1.1" viewBox="0 0 2048 705">
<metadata>
<vectornator:setting key="DisplayWhiteBackground" value="0"/>
<vectornator:setting key="RulersVisible" value="1"/>
<vectornator:setting key="GridSpacing" value="36"/>
<vectornator:setting key="Units" value="Pixels"/>
<vectornator:setting key="DynamicGuides" value="0"/>
<vectornator:setting key="SnapToPoints" value="0"/>
<vectornator:setting key="CMYKEnabledKey" value="0"/>
<vectornator:setting key="SnapToGrid" value="0"/>
<vectornator:setting key="ShowGrid" value="0"/>
<vectornator:setting key="SnapToEdges" value="0"/>
</metadata>
<defs/>
<g id="Layer 1" vectornator:layerName="Layer 1">
<path d="M1732.69+467.027L1949.92+467.027L1949.92+504.162L1732.69+504.162L1732.69+467.027Z" opacity="0.979967" fill="#f5ef0e"/>
<path d="M1735.07+513.104L1942.3+513.104L1942.3+548.698L1735.07+548.698L1735.07+513.104Z" opacity="0.979967" fill="#f5ef0e"/>
<path d="M1756.77+546.757L1834.48+638.656L1912.89+547.404" opacity="0.979967" fill="#f5ef0e"/>
<path stroke="#f5ef0e" stroke-width="29.94" d="M1667.15+218.122C1667.15+109.895+1742.85+22.1589+1836.23+22.1589C1929.61+22.1589+2005.31+109.895+2005.31+218.122C2005.31+326.35+1929.61+414.085+1836.23+414.085C1742.85+414.085+1667.15+326.35+1667.15+218.122Z" fill="none" stroke-linecap="butt" opacity="0.979967" stroke-linejoin="round"/>
<path stroke="#f5ef0e" stroke-width="29.94" d="M1758.87+402.436L1757.47+476.214L1920.6+478.156L1912.19+408.261" fill="#f5ef0e" stroke-linecap="butt" opacity="0.979967" stroke-linejoin="round"/>
<path stroke="#f5ef0e" stroke-width="29.94" d="M1803.24+438.454C1818.78+434.736+1827.74+443.682+1813.48+447.832C1803.06+450.863+1793.49+446.858+1783.82+448.244C1777.91+449.093+1784.8+437.168+1786.17+431.78C1787.67+425.916+1818.28+420.763+1821.56+429.261C1828.74+447.802+1788.62+450.792+1778.47+459.581C1770.65+466.355+1777.29+439.672+1778.81+429.865C1779.04+428.364+1781.84+431.101+1783.46+431.332C1790.47+432.331+1801.11+431.1+1807.45+430.858C1810.3+430.749+1838.18+425.876+1839.46+428.821C1841.84+434.278+1843.66+440.416+1842.64+446.224C1842.43+447.474+1819.42+457.428+1823.32+458.295C1837.17+461.367+1825.76+440.963+1822.58+427.709C1822.3+426.55+1824.81+429.001+1826.08+429.195C1830.86+429.927+1835.91+430.651+1840.97+430.976C1846.68+431.343+1855.56+432.753+1861.07+430.694C1863.2+429.897+1867.14+427.265+1867.79+429.302C1880+467.633+1858.75+445.17+1848.73+460.345C1847.32+462.488+1856.02+460.047+1856.3+457.55C1857.17+449.69+1845.26+428.364+1850.77+434.404C1855.61+439.708+1869.92+438.045+1876.03+436.88C1878.25+436.456+1879.63+429.195+1878.65+431.082C1862.18+462.675+1870.86+442.201+1877.89+458.536C1879.02+461.163+1868.09+465.17+1870.89+464.022C1876.13+461.871+1881.86+460.638+1886.74+457.862C1887.94+457.179+1877.37+461.51+1871.02+459.107C1870.13+458.769+1867.68+460.349+1868.17+459.581C1869.16+458.038+1876.62+441.549+1863.11+434.999C1860.7+433.831+1870.35+434.632+1870.65+432.133C1870.83+430.693+1858.74+433.519+1861.19+431.906C1872.54+424.41+1892.72+421.279+1888.83+438.678L1871.14+438.678C1864.88+454.625+1891.27+436.02+1897.39+440.273C1905+445.558+1860.94+464.66+1856.43+458.944C1846.48+446.362+1850.49+438.198+1853.7+435.873C1853.9+435.723+1863.24+429.035+1861.74+428.832C1815.14+422.548+1899.19+440.724+1860.86+427.902C1859.02+427.287+1853.4+429.541+1855.04+428.554C1875.34+416.336+1867.14+420.094+1877.89+426.587C1882.12+429.143+1889.46+429.274+1890.93+433.744C1893.09+440.323+1889.55+447.606+1886.93+454.04C1886.26+455.689+1883.24+451.36+1882.25+451.12C1878.45+450.21+1873.36+451.939+1869.59+452.579C1848.75+456.124+1832.14+473.633+1832.27+435.339C1832.28+433.314+1841.57+429.9+1844.04+429.955C1847.73+430.037+1853.04+429.714+1854.69+432.767C1857.75+438.408+1868.69+454.431+1865.29+448.964C1860+440.475+1822.9+456.538+1822.58+456.119C1816.57+448.299+1811.33+439.814+1807.76+430.806C1805.04+423.933+1824.22+427.748+1826.25+428.384C1832.77+430.43+1826.39+441.563+1829.5+447.241C1830.26+448.632+1836.04+446.834+1834.46+446.299C1825.68+443.334+1805.73+450.018+1798.41+452.432C1795.13+453.514+1791.9+454.775+1788.88+456.378C1787.5+457.113+1785.67+460.531+1785.14+459.14C1781.63+450.006+1782.16+421.643+1778.47+430.719C1774.41+440.732+1802.62+431.931+1805.46+430.975C1809.17+429.727+1805.67+438.816+1808.19+441.623C1810.08+443.722+1813.85+443.166+1816.66+444.013C1819.16+444.769+1811.41+444.553+1808.83+445.046C1807.28+445.344+1786.78+450.883+1786.17+449.459C1783.96+444.251+1783.75+438.376+1784.07+432.79C1784.2+430.632+1788.74+433.23+1791.07+433.16C1820.42+432.276+1828.7+450.111+1804.11+444.08" fill="#f5ef0e" stroke-linecap="butt" opacity="0.979967" stroke-linejoin="round"/>
<path stroke="#f5ef0e" stroke-width="29.94" d="M1724.56+350.014L1932.5+350.014L1932.5+361.664L1724.56+361.664L1724.56+350.014Z" fill="#f5ef0e" stroke-linecap="butt" opacity="0.979967" stroke-linejoin="round"/>
<path stroke="#f5ef0e" stroke-width="29.94" d="M1800.18+397.259L1800.88+397.259L1800.88+398.553L1800.18+398.553L1800.18+397.259Z" fill="#f5ef0e" stroke-linecap="butt" opacity="0.979967" stroke-linejoin="round"/>
<path stroke="#f5ef0e" stroke-width="29.94" d="M1776.37+370.724L1881.39+370.724L1881.39+399.2L1776.37+399.2L1776.37+370.724Z" fill="#f5ef0e" stroke-linecap="butt" opacity="0.979967" stroke-linejoin="round"/>
<path stroke="#e3de3b" stroke-width="14" d="M2519.92+898.307L2721.66+898.307L2721.66+909.544L2519.92+909.544L2519.92+898.307Z" fill="#e3de3b" stroke-linecap="butt" opacity="1" stroke-linejoin="round"/>
<path d="M230.7-136.362L238.419-136.362L238.419-129.501L230.7-129.501L230.7-136.362Z" opacity="0.979967" fill="#db2020"/>
<path d="M1663.93+619.727L1725.71+577.36L1748.46+600.962L1686.69+643.33L1663.93+619.727Z" opacity="0.979967" fill="#f5ef0e"/>
<path d="M2013.75+635.312L1956.85+586.59L1931.71+607.627L1988.61+656.35L2013.75+635.312Z" opacity="0.979967" fill="#f5ef0e"/>
<path d="M1729.91+676.541L1779.18+622.64L1807.46+640.868L1758.18+694.769L1729.91+676.541Z" opacity="0.979967" fill="#f5ef0e"/>
<path d="M1942.08+684.755L1898.85+625.9L1868.79+641.004L1912.02+699.859L1942.08+684.755Z" opacity="0.979967" fill="#f5ef0e"/>
<path d="M1699.67+696.765L1700.32+696.765L1700.32+700.384L1699.67+700.384L1699.67+696.765Z" opacity="0.979967" fill="#f5ef0e"/>
<path stroke="#f5ef0e" stroke-width="29.94" d="M1888.42+369.405L1908.31+369.405L1908.31+393.422L1888.42+393.422L1888.42+369.405Z" fill="#f5ef0e" stroke-linecap="butt" opacity="0.979967" stroke-linejoin="round"/>
<path stroke="#f5ef0e" stroke-width="29.94" d="M1732.58+219.067C1732.58+207.448+1742.24+198.029+1754.15+198.029C1766.05+198.029+1775.71+207.448+1775.71+219.067C1775.71+230.687+1766.05+240.106+1754.15+240.106C1742.24+240.106+1732.58+230.687+1732.58+219.067Z" fill="#f5ef0e" stroke-linecap="butt" opacity="0.979967" stroke-linejoin="round"/>
<path stroke="#f5ef0e" stroke-width="29.94" d="M1815.13+219.699C1815.13+208.08+1824.79+198.661+1836.69+198.661C1848.6+198.661+1858.26+208.08+1858.26+219.699C1858.26+231.319+1848.6+240.738+1836.69+240.738C1824.79+240.738+1815.13+231.319+1815.13+219.699Z" fill="#f5ef0e" stroke-linecap="butt" opacity="0.979967" stroke-linejoin="round"/>
<path stroke="#f5ef0e" stroke-width="29.94" d="M1899.95+221.872C1899.95+210.252+1909.6+200.833+1921.51+200.833C1933.42+200.833+1943.08+210.252+1943.08+221.872C1943.08+233.491+1933.42+242.911+1921.51+242.911C1909.6+242.911+1899.95+233.491+1899.95+221.872Z" fill="#f5ef0e" stroke-linecap="butt" opacity="0.979967" stroke-linejoin="round"/>
</g>
<g id="Layer 1_2" vectornator:layerName="Layer 1">
<g opacity="0.979967">
<path d="M128.37+150.297L128.37+453.977C128.37+492.251+121.871+519.247+108.873+534.966C95.8752+550.686+74.8446+558.545+45.7815+558.545C32.3453+558.545+19.6393+556.723+7.66355+553.078L7.66355+504.553C20.2235+507.894+31.7611+509.565+42.2764+509.565C52.4996+509.565+60.1305+507.856+65.1691+504.439C70.2077+501.021+73.7128+495.592+75.6844+488.15C77.656+480.708+78.6418+470.152+78.6418+456.483L78.6418+150.297L36.3615+150.297L36.3615+107.468L170.651+107.468L170.651+150.297L128.37+150.297Z" opacity="0.979967" fill="#f5ef0e"/>
<path d="M284.566+413.882C304.867+413.882+326.847+403.63+350.506+383.126L350.506+253.498L309.759+253.498L309.759+211.352L395.853+211.352L395.853+408.87L435.286+408.87L435.286+450.788L350.506+450.788L350.506+423.222C323.926+444.333+298.66+454.889+274.708+454.889C253.094+454.889+237.138+448.206+226.842+434.841C216.546+421.475+211.397+399.301+211.397+368.318L211.397+253.498L179.194+253.498L179.194+211.352L256.745+211.352L256.745+378.114C256.745+390.416+258.899+399.453+263.207+405.224C267.516+410.996+274.635+413.882+284.566+413.882Z" opacity="0.979967" fill="#f5ef0e"/>
<path d="M496.844+408.87L496.844+253.498L458.069+253.498L458.069+211.352L541.972+211.352L541.972+241.652C568.991+219.326+595.498+208.163+621.494+208.163C648.074+208.163+666.33+220.617+676.261+245.525C705.762+220.617+733.584+208.163+759.726+208.163C778.274+208.163+793.061+213.858+804.088+225.249C815.114+236.64+820.627+254.106+820.627+277.647L820.627+408.87L860.936+408.87L860.936+450.788L775.718+450.788L775.718+299.062C775.718+288.582+775.207+280.077+774.185+273.546C773.163+267.016+770.497+261.472+766.189+256.916C761.881+252.359+755.053+250.081+745.706+250.081C737.381+250.081+727.669+252.663+716.57+257.827C705.47+262.991+693.787+270.737+681.519+281.064L681.519+408.87L720.513+408.87L720.513+450.788L636.172+450.788L636.172+293.139C636.172+277.799+633.944+266.788+629.49+260.105C625.036+253.423+617.697+250.081+607.474+250.081C590.824+250.081+568.991+260.409+541.972+281.064L541.972+408.87L582.5+408.87L582.5+450.788L455.44+450.788L455.44+408.87L496.844+408.87Z" opacity="0.979967" fill="#f5ef0e"/>
<path d="M1044.95+204.973C1066.13+204.973+1085.26+210.555+1102.35+221.718C1119.44+232.881+1132.76+247.955+1142.33+266.94C1151.9+285.924+1156.68+306.428+1156.68+328.45C1156.68+351.232+1151.82+372.267+1142.11+391.555C1132.4+410.844+1119+426.222+1101.91+437.688C1084.82+449.155+1065.69+454.889+1044.52+454.889C1027.72+454.889+1011.76+451.319+996.649+444.181C981.533+437.043+969.667+427.247+961.05+414.793L961.05+450.788L876.271+450.788L876.271+408.87L917.018+408.87L917.018+148.931L876.271+148.931L876.271+107.468L961.05+107.468L961.05+245.525C984.126+218.491+1012.09+204.973+1044.95+204.973ZM1035.53+412.97C1049.85+412.97+1062.63+408.945+1073.87+400.896C1085.12+392.846+1093.81+382.291+1099.94+369.229C1106.07+356.168+1109.14+342.271+1109.14+327.539C1109.14+312.959+1106+299.593+1099.72+287.443C1093.44+275.293+1084.75+265.649+1073.65+258.51C1062.55+251.372+1049.99+247.803+1035.97+247.803C1021.95+247.803+1009.39+251.524+998.292+258.966C987.193+266.408+978.503+276.508+972.223+289.266C965.943+302.023+962.803+316.224+962.803+331.867C962.803+346.751+966.016+360.421+972.442+372.874C978.868+385.328+987.631+395.125+998.73+402.263C1009.83+409.401+1022.1+412.97+1035.53+412.97Z" opacity="0.979967" fill="#f5ef0e"/>
<path d="M1303.45+408.87L1303.45+450.788L1182.31+450.788L1182.31+408.87L1223.06+408.87L1223.06+148.931L1182.31+148.931L1182.31+107.468L1268.4+107.468L1268.4+408.87L1303.45+408.87Z" opacity="0.979967" fill="#f5ef0e"/>
<path d="M1577.95+343.03L1384.95+343.03C1387.72+365.964+1396.27+384.075+1410.58+397.365C1424.89+410.654+1442.42+417.299+1463.16+417.299C1478.34+417.299+1492.44+414.033+1505.44+407.503C1518.43+400.972+1529.31+390.948+1538.08+377.431L1577.95+396.112C1565.39+416.463+1548.92+431.841+1528.55+442.245C1508.17+452.648+1486.01+457.85+1462.06+457.85C1437.23+457.85+1415.18+452.459+1395.9+441.675C1376.62+430.892+1361.62+415.856+1350.88+396.567C1340.15+377.279+1334.78+355.56+1334.78+331.412C1334.78+307.415+1340.08+285.773+1350.66+266.484C1361.25+247.196+1375.75+232.122+1394.15+221.262C1412.55+210.403+1432.85+204.973+1455.05+204.973C1479.29+204.973+1500.43+210.555+1518.47+221.718C1536.51+232.881+1550.71+248.828+1561.08+269.56C1571.45+290.291+1577.07+314.781+1577.95+343.03ZM1455.93+244.158C1438.84+244.158+1423.87+250.119+1411.02+262.042C1398.17+273.964+1389.91+289.721+1386.26+309.314L1530.41+309.314C1526.17+289.721+1517.19+273.964+1503.46+262.042C1489.74+250.119+1473.89+244.158+1455.93+244.158Z" opacity="0.979967" fill="#f5ef0e"/>
</g>
<path d="M676.963+171.59" opacity="0.979967" fill="#e3de3b"/>
<path d="M151.861+506.039L1557.22+506.039L1557.22+582.241L151.861+582.241L151.861+506.039Z" opacity="0.979967" fill="#f5ef0e"/>
</g>
</svg>
